<svg width="392" height="160" viewBox="0 0 392 160" fill="none" xmlns="http://www.w3.org/2000/svg">
<path d="M17.1865 153.284C17.1865 157.092 13.8026 159.518 8.99956 159.518C4.19656 159.518 0.764114 157.214 0 152.398H3.38393C3.84483 155.249 5.95524 156.825 9.10872 156.825C12.2622 156.825 13.8026 155.443 13.8026 153.514C13.8026 147.935 0.691341 152.556 0.691341 144.09C0.691341 140.973 3.1171 138.123 8.11416 138.123C12.5412 138.123 15.8038 140.197 16.4588 145.279H13.0748C12.5776 142.089 10.8068 140.9 7.9201 140.9C5.38518 140.9 3.9176 142.174 3.9176 143.86C3.9176 149.548 17.1865 144.866 17.1865 153.284Z" fill="white"/>
<path d="M45.3738 159.518C39.4549 159.518 35.877 155.515 35.877 148.869C35.877 142.222 39.4549 138.135 45.1797 138.135C50.9045 138.135 54.4097 142.101 54.4097 148.602V149.451H39.3337C39.5277 154.023 41.6745 156.607 45.3738 156.607C48.2604 156.607 50.2981 155.224 51.0258 152.41H54.5674C53.4516 157.177 50.0313 159.53 45.3738 159.53V159.518ZM39.4549 146.904H50.8803C50.4194 143.132 48.3817 141.058 45.1919 141.058C42.002 141.058 39.9644 143.095 39.4671 146.904H39.4549Z" fill="white"/>
<path d="M74.3373 145.291C74.9923 140.791 77.9517 138.135 82.9488 138.135C88.4067 138.135 91.0629 141.325 91.0629 146.091V154.133C91.0629 156.473 91.257 157.941 91.7907 159.057H88.2127C87.8246 158.244 87.7154 157.056 87.679 155.831C85.9446 158.402 83.1792 159.518 80.7171 159.518C76.4841 159.518 73.646 157.553 73.646 153.672C73.646 150.87 75.1863 148.832 78.1822 147.826C80.9475 146.904 83.7614 146.673 87.679 146.637V146.176C87.679 142.865 86.1386 141.058 82.6456 141.058C79.7225 141.058 78.1458 142.671 77.7213 145.291H74.3373ZM81.0688 156.595C84.8409 156.595 87.679 153.635 87.679 150.13V149.172C78.9827 149.245 77.1027 151.1 77.1027 153.599C77.1027 155.479 78.6794 156.595 81.0688 156.595Z" fill="white"/>
<path d="M133.174 138.632H136.825L142.477 154.472L142.974 156.243L143.472 154.472L149.124 138.632H152.544L144.927 159.057H140.779L133.162 138.632H133.174Z" fill="white"/>
<path d="M179.591 159.518C173.672 159.518 170.094 155.515 170.094 148.869C170.094 142.222 173.672 138.135 179.397 138.135C185.122 138.135 188.627 142.101 188.627 148.602V149.451H173.551C173.745 154.023 175.892 156.607 179.591 156.607C182.478 156.607 184.515 155.224 185.243 152.41H188.785C187.669 157.177 184.249 159.53 179.591 159.53V159.518ZM173.672 146.904H185.098C184.637 143.132 182.599 141.058 179.409 141.058C176.219 141.058 174.182 143.095 173.684 146.904H173.672Z" fill="white"/>
<path d="M208.822 138.632H212.205V141.398C213.588 139.239 215.82 138.123 218.512 138.123C222.855 138.123 225.438 140.658 225.438 145.388V159.045H222.054V146.079C222.054 142.999 220.671 140.997 217.591 140.997C214.207 140.997 212.205 144.03 212.205 146.953V159.033H208.822V138.608V138.632Z" fill="white"/>
<path d="M246.966 141.325H244.116V138.632H246.966V133.938H250.35V138.632H254.85V141.325H250.35V153.174C250.35 155.637 251.078 156.789 254.086 156.789H254.777V159.215C254.389 159.409 253.552 159.518 252.582 159.518C248.774 159.518 246.966 157.48 246.966 153.174V141.325Z" fill="white"/>
<path d="M286.773 138.632H290.157V159.057H286.773V156.292C285.39 158.451 283.232 159.518 280.587 159.518C276.318 159.518 273.783 157.019 273.783 152.289V138.632H277.167V151.598C277.167 154.678 278.513 156.631 281.509 156.631C284.82 156.631 286.773 153.635 286.773 150.712V138.632Z" fill="white"/>
<path d="M311.225 138.632H314.609V141.786C315.991 139.287 318.187 138.135 320.649 138.135C321.462 138.135 322.189 138.329 322.577 138.632V141.664C321.995 141.47 321.267 141.397 320.467 141.397C316.392 141.397 314.621 143.932 314.621 147.632V159.057H311.237V138.632H311.225Z" fill="white"/>
<path d="M346.265 159.518C340.346 159.518 336.768 155.515 336.768 148.869C336.768 142.222 340.346 138.135 346.071 138.135C351.795 138.135 355.301 142.101 355.301 148.602V149.451H340.225C340.419 154.023 342.565 156.607 346.265 156.607C349.151 156.607 351.189 155.224 351.917 152.41H355.458C354.343 157.177 350.922 159.53 346.265 159.53V159.518ZM340.346 146.904H351.771C351.31 143.132 349.273 141.058 346.083 141.058C342.893 141.058 340.855 143.095 340.358 146.904H340.346Z" fill="white"/>
<path d="M391.263 153.284C391.263 157.092 387.879 159.518 383.076 159.518C378.273 159.518 374.84 157.214 374.076 152.398H377.46C377.921 155.249 380.031 156.825 383.185 156.825C386.338 156.825 387.879 155.443 387.879 153.514C387.879 147.935 374.767 152.556 374.767 144.09C374.767 140.973 377.193 138.123 382.19 138.123C386.617 138.123 389.88 140.197 390.535 145.279H387.151C386.654 142.089 384.883 140.9 381.996 140.9C379.461 140.9 377.994 142.174 377.994 143.86C377.994 149.548 391.263 144.866 391.263 153.284Z" fill="white"/>
<path d="M166.844 75.2349L149.536 29.8247L146.103 18.5085L142.671 29.8247L125.363 75.2349L119.541 90.311L109.596 116.533H90.4081L131.816 9.07234C133.926 3.60225 139.178 0 145.036 0H148.032C153.89 0 159.142 3.60225 161.252 9.07234L202.66 116.533H182.611L172.666 90.311L166.844 75.2349Z" fill="white"/>
<path d="M355.555 75.2349L338.248 29.8247L334.815 18.5085L331.383 29.8247L314.075 75.2349L308.253 90.311L298.307 116.533H279.12L320.527 9.07234C322.638 3.60225 327.89 0 333.748 0H336.744C342.602 0 347.854 3.60225 349.964 9.07234L391.372 116.533H371.323L361.377 90.311L355.555 75.2349Z" fill="white"/>
<path d="M70.6016 81.5661C68.0303 71.1111 64.2583 64.7677 57.4055 61.1776C67.8605 56.035 73.8521 46.7807 73.8521 33.5846C73.8521 13.0263 57.9149 0 32.7234 0H0.254639L6.18562 15.4157H8.21113H32.2019C46.0772 15.4157 54.1429 22.9598 54.1429 34.6034C54.1429 46.2471 46.0893 53.9731 31.8623 53.9731H21.0434L26.9865 69.4009H31.0011C43.8576 69.4009 49.0002 71.9722 52.081 85.3382L59.1035 116.533H79.3222L70.5774 81.5782L70.6016 81.5661Z" fill="white"/>
<path d="M223.109 0H175.043L181.071 15.634H223.109C248.022 15.634 262.807 31.4378 262.807 58.5942C262.807 95.1746 238.804 99.8078 232.279 100.414C225.753 101.021 213.976 100.899 213.976 100.899L220.004 116.533L232.994 116.194C263.85 113.598 282.395 91.7786 282.395 58.5942C282.395 21.9895 259.714 0 223.109 0V0Z" fill="white"/>
</svg>
